<svg width="100" height="30" viewBox="0 0 1291 805" fill="none" xmlns="http://www.w3.org/2000/svg">
    <g filter="url(#filter0_d_3_29)">
        <path fill-rule="evenodd" clip-rule="evenodd" d="M847.231 0.30542L693.184 0.305359L260.731 788.641L422.699 788.641L847.231 0.30542ZM1028.03 796.719C1089.75 796.719 1141.51 784.414 1183.3 759.805C1225.49 734.805 1257.13 706.289 1278.23 674.258L1212.02 622.695C1192.09 648.477 1167.09 669.18 1137.02 684.805C1106.94 700.43 1072.56 708.242 1033.89 708.242C1004.59 708.242 977.836 702.773 953.617 691.836C929.398 680.898 908.695 665.859 891.508 646.719C874.711 628.75 861.43 608.047 851.664 584.609C842.289 561.172 836.234 534.023 833.5 503.164V499.062H1286.43V450.43C1286.43 406.289 1280.77 365.273 1269.44 327.383C1258.5 289.492 1241.7 256.484 1219.05 228.359C1196.39 200.625 1167.88 178.945 1133.5 163.32C1099.52 147.305 1059.67 139.297 1013.97 139.297C977.641 139.297 942.094 146.719 907.328 161.562C872.953 176.406 842.289 197.695 815.336 225.43C787.992 253.555 766.117 287.93 749.711 328.555C733.305 368.789 725.102 414.492 725.102 465.664V490.273C725.102 534.414 732.523 575.234 747.367 612.734C762.211 650.234 782.914 682.656 809.477 710C836.039 737.344 867.875 758.633 904.984 773.867C942.484 789.102 983.5 796.719 1028.03 796.719ZM1013.97 228.359C1041.7 228.359 1065.53 233.438 1085.45 243.594C1105.77 253.75 1122.56 267.031 1135.84 283.438C1149.12 299.844 1159.48 319.375 1166.9 342.031C1174.32 364.297 1178.03 385.195 1178.03 404.727V410H837.016C841.312 380.703 848.734 354.922 859.281 332.656C870.219 310 883.5 290.859 899.125 275.234C914.75 260 932.328 248.477 951.859 240.664C971.391 232.461 992.094 228.359 1013.97 228.359ZM204 685C204 740.228 159.228 785 104 785C48.7715 785 4 740.228 4 685C4 629.772 48.7715 585 104 585C159.228 585 204 629.772 204 685Z" fill="url(#paint0_linear_3_29)" />
    </g>
    <defs>
        <filter id="filter0_d_3_29" x="0" y="0.305359" width="1290.43" height="804.413" filterUnits="userSpaceOnUse" color-interpolation-filters="sRGB">
            <feFlood flood-opacity="0" result="BackgroundImageFix" />
            <feColorMatrix in="SourceAlpha" type="matrix" values="0 0 0 0 0 0 0 0 0 0 0 0 0 0 0 0 0 0 127 0" result="hardAlpha" />
            <feOffset dy="4" />
            <feGaussianBlur stdDeviation="2" />
            <feComposite in2="hardAlpha" operator="out" />
            <feColorMatrix type="matrix" values="0 0 0 0 0 0 0 0 0 0 0 0 0 0 0 0 0 0 0.25 0" />
            <feBlend mode="normal" in2="BackgroundImageFix" result="effect1_dropShadow_3_29" />
            <feBlend mode="normal" in="SourceGraphic" in2="effect1_dropShadow_3_29" result="shape" />
        </filter>
        <linearGradient id="paint0_linear_3_29" x1="99" y1="-216" x2="1286" y2="766.5" gradientUnits="userSpaceOnUse">
            <stop offset="0.287212" stop-color="#67FB21" />
            <stop offset="1" stop-color="#184E77" />
        </linearGradient>
    </defs>
</svg>